<?xml version="1.0" encoding="UTF-8" standalone="no"?>
<!-- Created with Inkscape (http://www.inkscape.org/) -->

<svg
   width="40"
   height="40"
   viewBox="0 0 40 40"
   version="1.1"
   id="svg5"
   xml:space="preserve"
   inkscape:version="1.2.2 (732a01da63, 2022-12-09)"
   sodipodi:docname="logo.svg"
   xmlns:inkscape="http://www.inkscape.org/namespaces/inkscape"
   xmlns:sodipodi="http://sodipodi.sourceforge.net/DTD/sodipodi-0.dtd"
   xmlns="http://www.w3.org/2000/svg"
   xmlns:svg="http://www.w3.org/2000/svg"><sodipodi:namedview
     id="namedview7"
     pagecolor="#ffffff"
     bordercolor="#000000"
     borderopacity="0.25"
     inkscape:showpageshadow="2"
     inkscape:pageopacity="0.0"
     inkscape:pagecheckerboard="true"
     inkscape:deskcolor="#d1d1d1"
     inkscape:document-units="px"
     showgrid="true"
     showguides="true"
     inkscape:zoom="3.7822847"
     inkscape:cx="-46.532721"
     inkscape:cy="74.55811"
     inkscape:window-width="2560"
     inkscape:window-height="1387"
     inkscape:window-x="-8"
     inkscape:window-y="418"
     inkscape:window-maximized="1"
     inkscape:current-layer="layer5"><inkscape:grid
       type="xygrid"
       id="grid9"
       spacingy="2"
       spacingx="2" /></sodipodi:namedview><defs
     id="defs2"><linearGradient
       id="linearGradient2879"
       inkscape:swatch="solid"><stop
         style="stop-color:#0d0d39;stop-opacity:1;"
         offset="0"
         id="stop2877" /></linearGradient></defs><g
     inkscape:groupmode="layer"
     id="layer3"
     inkscape:label="microphone"
     style="display:none"><path
       fill="#000000"
       d="m 19.982353,5.8346469 a 5.0768566,5.0768566 0 0 1 5.076856,5.0768561 v 10.153714 a 5.0768566,5.0768566 0 0 1 -5.076856,5.076857 5.0768566,5.0768566 0 0 1 -5.076857,-5.076857 V 10.911503 A 5.0768566,5.0768566 0 0 1 19.982353,5.8346469 M 31.828351,21.065217 c 0,5.973768 -4.416865,10.898319 -10.153713,11.727539 v 5.195316 H 18.290067 V 32.792756 C 12.553219,31.963536 8.1363539,27.038985 8.1363539,21.065217 h 3.3845711 a 8.4614277,8.4614277 0 0 0 8.461428,8.461428 8.4614277,8.4614277 0 0 0 8.461427,-8.461428 z"
       id="path141"
       style="stroke-width:1.69229" /></g><g
     inkscape:groupmode="layer"
     id="layer5"
     inkscape:label="background"><rect
       style="display:inline;fill:#0d0d39;fill-opacity:1;stroke:none;stroke-width:10;stroke-linecap:round;stroke-dasharray:none;stroke-opacity:1"
       id="rect2732"
       width="40"
       height="40"
       x="1.3952902e-06"
       y="1.6448366e-08" /></g><g
     inkscape:groupmode="layer"
     id="layer4"
     inkscape:label="logo"><g
       inkscape:groupmode="layer"
       id="layer6"
       inkscape:label="simple mic"><path
         style="display:inline;fill:none;stroke:#4ebdff;stroke-width:3;stroke-linecap:round;stroke-dasharray:none;stroke-opacity:1"
         id="path513-7"
         sodipodi:type="arc"
         sodipodi:cx="19.966951"
         sodipodi:cy="20.590611"
         sodipodi:rx="8.5"
         sodipodi:ry="8.5"
         sodipodi:start="0"
         sodipodi:end="3.1415927"
         sodipodi:arc-type="arc"
         d="m 28.466951,20.590611 a 8.5,8.5 0 0 1 -4.25,7.361216 8.5,8.5 0 0 1 -8.5,-1e-6 8.5,8.5 0 0 1 -4.25,-7.361215"
         sodipodi:open="true"
         inkscape:label="bracket" /><path
         style="display:inline;fill:none;stroke:#4ebdff;stroke-width:3;stroke-linecap:round;stroke-dasharray:none;stroke-opacity:1"
         d="M 20,36.500224 V 30.5"
         id="path2464-9-3"
         sodipodi:nodetypes="cc"
         inkscape:label="stem" /><path
         style="display:inline;fill:none;stroke:#4ebdff;stroke-width:10.5;stroke-linecap:round;stroke-dasharray:none;stroke-opacity:1"
         d="M 20,20 V 12"
         id="path2464-9-3-2"
         sodipodi:nodetypes="cc"
         inkscape:label="body" /><g
         inkscape:groupmode="layer"
         id="layer8"
         inkscape:label="mouse"><path
           style="fill:#4ebdff;fill-opacity:1;stroke:#0d0d39;stroke-width:1;stroke-linecap:round;stroke-dasharray:none;stroke-opacity:1"
           d="m 20,6 v 9.140731"
           id="path3780"
           sodipodi:nodetypes="cc" /><path
           style="fill:#4ebdff;fill-opacity:1;stroke:#0d0d39;stroke-width:1;stroke-linecap:round;stroke-dasharray:none;stroke-opacity:1"
           d="M 14,15.140731 25.7,15.141"
           id="path4028"
           sodipodi:nodetypes="cc" /><path
           style="fill:#4ebdff;fill-opacity:1;stroke:#0d0d39;stroke-width:3;stroke-linecap:round;stroke-dasharray:none;stroke-dashoffset:0;stroke-opacity:1;paint-order:normal"
           d="m 20,10.140731 v 1.5"
           id="path4030"
           sodipodi:nodetypes="cc" /><path
           style="fill:#4ebdff;fill-opacity:1;stroke:#4ebdff;stroke-width:1;stroke-linecap:round;stroke-dasharray:none;stroke-dashoffset:0;stroke-opacity:1;paint-order:normal"
           d="m 20,10.140731 v 1.5"
           id="path4030-8"
           sodipodi:nodetypes="cc" /></g></g><g
       inkscape:groupmode="layer"
       id="layer7"
       inkscape:label="bulb"><path
         id="path2464-9"
         style="display:inline;fill:none;stroke:#ffffff;stroke-width:2.00001;stroke-linecap:round;stroke-linejoin:round;stroke-dasharray:none;stroke-opacity:1"
         class="UnoptimicedTransforms"
         d="m 16.000005,37 -0.0028,-2.11763 c 0,-1.837 -0.90876,-2.288875 -2.588122,-3.108731 -0.817204,-0.402468 -1.587819,-0.87404 -2.305891,-1.405723 C 9.667049,29.304551 8.441078,28.00074 7.472915,26.528425 5.536589,23.583794 4.6314941,19.965142 5.1387119,16.247986 6.1531473,8.8136743 12.50474,3.2725132 20.007943,3.2759931 c 7.503203,0.00348 13.849653,5.5505311 14.857192,12.9857809 0.503769,3.717625 -0.40468,7.335436 -2.343012,10.278037 -0.969166,1.4713 -2.195802,2.7738 -3.632116,3.835572 -0.718157,0.530886 -1.488733,1.001591 -2.305755,1.403123 -2.179765,0.802319 -2.584404,1.546879 -2.584337,3.104793 L 24.000005,37"
         sodipodi:nodetypes="cccsssssssccc" /><path
         style="display:none;fill:none;fill-opacity:1;stroke:#ffffff;stroke-width:2;stroke-linecap:round;stroke-dasharray:none;stroke-dashoffset:0;stroke-opacity:1;paint-order:normal"
         d="M 16,37 C 16.0038,33.061559 16.0086,32.984114 14.28125,31.886499 13.295089,31.255698 11.875,30.483887 10.5,29.305664 7.7499995,26.949219 5,23.274218 5,18 5,7.4515638 14.713568,3 20,3 c 5.286432,0 15,3.3311404 15,15 0,5.83443 -2.75,9.50943 -5.5,11.725822 -1.375,1.108197 -2.716951,1.88479 -3.78125,2.318236 C 24.084302,33.100231 24.033049,33.078498 24,37"
         id="path4325"
         sodipodi:nodetypes="ccsszsscc" /></g></g></svg>
