<?xml version="1.0" encoding="UTF-8" standalone="no"?>
<!-- Created with Inkscape (http://www.inkscape.org/) -->

<svg
   width="40"
   height="40"
   viewBox="0 0 40 40"
   version="1.1"
   id="svg5"
   xml:space="preserve"
   xmlns="http://www.w3.org/2000/svg"
   xmlns:svg="http://www.w3.org/2000/svg"><defs
     id="defs2"><linearGradient
       id="linearGradient2879"><stop
         style="stop-color:#0d0d39;stop-opacity:1;"
         offset="0"
         id="stop2877" /></linearGradient></defs><g
     id="layer5"><rect
       style="display:inline;fill:#0d0d39;fill-opacity:1;stroke:none;stroke-width:10;stroke-linecap:round;stroke-dasharray:none;stroke-opacity:1"
       id="rect2732"
       width="40"
       height="40"
       x="1.3952902e-06"
       y="1.6448366e-08" /></g><g
     id="layer4"><g
       id="layer6"><path
         style="display:inline;fill:none;stroke:#4ebdff;stroke-width:3;stroke-linecap:round;stroke-dasharray:none;stroke-opacity:1"
         id="path513-7"
         d="m 28.466951,20.590611 a 8.5,8.5 0 0 1 -4.25,7.361216 8.5,8.5 0 0 1 -8.5,-1e-6 8.5,8.5 0 0 1 -4.25,-7.361215" /><path
         style="display:inline;fill:none;stroke:#4ebdff;stroke-width:3;stroke-linecap:round;stroke-dasharray:none;stroke-opacity:1"
         d="M 20,36.500224 V 30.5"
         id="path2464-9-3" /><path
         style="display:inline;fill:none;stroke:#4ebdff;stroke-width:10.5;stroke-linecap:round;stroke-dasharray:none;stroke-opacity:1"
         d="m 20,20.4 v -8"
         id="path2464-9-3-2" /><g
         id="layer8"><path
           style="fill:#4ebdff;fill-opacity:1;stroke:#0d0d39;stroke-width:1;stroke-linecap:round;stroke-dasharray:none;stroke-opacity:1"
           d="m 20,6.4 v 9.140731"
           id="path3780" /><path
           style="fill:#4ebdff;fill-opacity:1;stroke:#0d0d39;stroke-width:1;stroke-linecap:round;stroke-dasharray:none;stroke-opacity:1"
           d="M 14,15.540731 25.7,15.541"
           id="path4028" /><path
           style="fill:#4ebdff;fill-opacity:1;stroke:#0d0d39;stroke-width:3;stroke-linecap:round;stroke-dasharray:none;stroke-dashoffset:0;stroke-opacity:1;paint-order:normal"
           d="m 20,10.540731 v 1.5"
           id="path4030" /><path
           style="fill:#4ebdff;fill-opacity:1;stroke:#4ebdff;stroke-width:1;stroke-linecap:round;stroke-dasharray:none;stroke-dashoffset:0;stroke-opacity:1;paint-order:normal"
           d="m 20,10.540731 v 1.5"
           id="path4030-8" /></g></g><g
       id="layer7"><path
         id="path2464-9"
         style="display:inline;fill:none;stroke:#ffffff;stroke-width:2.00001;stroke-linecap:round;stroke-linejoin:round;stroke-dasharray:none;stroke-opacity:1"
         class="UnoptimicedTransforms"
         d="m 16.000005,37 -0.0028,-2.11763 c 0,-1.837 -0.90876,-2.288875 -2.588122,-3.108731 -0.817204,-0.402468 -1.587819,-0.87404 -2.305891,-1.405723 C 9.667049,29.304551 8.441078,28.00074 7.472915,26.528425 5.536589,23.583794 4.6314941,19.965142 5.1387119,16.247986 6.1531473,8.8136743 12.50474,3.2725132 20.007943,3.2759931 c 7.503203,0.00348 13.849653,5.5505311 14.857192,12.9857809 0.503769,3.717625 -0.40468,7.335436 -2.343012,10.278037 -0.969166,1.4713 -2.195802,2.7738 -3.632116,3.835572 -0.718157,0.530886 -1.488733,1.001591 -2.305755,1.403123 -2.179765,0.802319 -2.584404,1.546879 -2.584337,3.104793 L 24.000005,37" /></g></g></svg>
